<?xml version="1.0" encoding="utf-8"?>
<!DOCTYPE svg PUBLIC "-//W3C//DTD SVG 1.1//EN" "http://www.w3.org/Graphics/SVG/1.1/DTD/svg11.dtd">
<svg version="1.1" id="Layer_1" xmlns="http://www.w3.org/2000/svg" xmlns:xlink="http://www.w3.org/1999/xlink" x="0px" y="0px"
width="1160px" height="1160px" viewBox="0 0 1160 1160" enable-background="new 0 0 1160 1160" xml:space="preserve">
<rect x="0" y="0" width="1160" height="1160" fill="rgb(255,255,255)" /><g transform="translate(80,80)"><g transform="translate(320,0) scale(0.405,0.405)"><g transform="" style="fill: rgb(0, 0, 0);">
<rect width="100" height="100"/>
</g></g><g transform="translate(360,0) scale(0.405,0.405)"><g transform="" style="fill: rgb(0, 0, 0);">
<rect width="100" height="100"/>
</g></g><g transform="translate(400,0) scale(0.405,0.405)"><g transform="" style="fill: rgb(0, 0, 0);">
<rect width="100" height="100"/>
</g></g><g transform="translate(440,0) scale(0.405,0.405)"><g transform="" style="fill: rgb(0, 0, 0);">
<rect width="100" height="100"/>
</g></g><g transform="translate(480,0) scale(0.405,0.405)"><g transform="" style="fill: rgb(0, 0, 0);">
<rect width="100" height="100"/>
</g></g><g transform="translate(520,0) scale(0.405,0.405)"><g transform="" style="fill: rgb(0, 0, 0);">
<rect width="100" height="100"/>
</g></g><g transform="translate(560,0) scale(0.405,0.405)"><g transform="" style="fill: rgb(0, 0, 0);">
<rect width="100" height="100"/>
</g></g><g transform="translate(320,40) scale(0.405,0.405)"><g transform="" style="fill: rgb(0, 0, 0);">
<rect width="100" height="100"/>
</g></g><g transform="translate(560,40) scale(0.405,0.405)"><g transform="" style="fill: rgb(0, 0, 0);">
<rect width="100" height="100"/>
</g></g><g transform="translate(320,80) scale(0.405,0.405)"><g transform="" style="fill: rgb(0, 0, 0);">
<rect width="100" height="100"/>
</g></g><g transform="translate(360,80) scale(0.405,0.405)"><g transform="" style="fill: rgb(0, 0, 0);">
<rect width="100" height="100"/>
</g></g><g transform="translate(480,80) scale(0.405,0.405)"><g transform="" style="fill: rgb(0, 0, 0);">
<rect width="100" height="100"/>
</g></g><g transform="translate(520,80) scale(0.405,0.405)"><g transform="" style="fill: rgb(0, 0, 0);">
<rect width="100" height="100"/>
</g></g><g transform="translate(640,80) scale(0.405,0.405)"><g transform="" style="fill: rgb(0, 0, 0);">
<rect width="100" height="100"/>
</g></g><g transform="translate(400,120) scale(0.405,0.405)"><g transform="" style="fill: rgb(0, 0, 0);">
<rect width="100" height="100"/>
</g></g><g transform="translate(640,120) scale(0.405,0.405)"><g transform="" style="fill: rgb(0, 0, 0);">
<rect width="100" height="100"/>
</g></g><g transform="translate(320,160) scale(0.405,0.405)"><g transform="" style="fill: rgb(0, 0, 0);">
<rect width="100" height="100"/>
</g></g><g transform="translate(360,160) scale(0.405,0.405)"><g transform="" style="fill: rgb(0, 0, 0);">
<rect width="100" height="100"/>
</g></g><g transform="translate(400,160) scale(0.405,0.405)"><g transform="" style="fill: rgb(0, 0, 0);">
<rect width="100" height="100"/>
</g></g><g transform="translate(560,160) scale(0.405,0.405)"><g transform="" style="fill: rgb(0, 0, 0);">
<rect width="100" height="100"/>
</g></g><g transform="translate(640,160) scale(0.405,0.405)"><g transform="" style="fill: rgb(0, 0, 0);">
<rect width="100" height="100"/>
</g></g><g transform="translate(400,200) scale(0.405,0.405)"><g transform="" style="fill: rgb(0, 0, 0);">
<rect width="100" height="100"/>
</g></g><g transform="translate(440,200) scale(0.405,0.405)"><g transform="" style="fill: rgb(0, 0, 0);">
<rect width="100" height="100"/>
</g></g><g transform="translate(480,200) scale(0.405,0.405)"><g transform="" style="fill: rgb(0, 0, 0);">
<rect width="100" height="100"/>
</g></g><g transform="translate(520,200) scale(0.405,0.405)"><g transform="" style="fill: rgb(0, 0, 0);">
<rect width="100" height="100"/>
</g></g><g transform="translate(560,200) scale(0.405,0.405)"><g transform="" style="fill: rgb(0, 0, 0);">
<rect width="100" height="100"/>
</g></g><g transform="translate(320,240) scale(0.405,0.405)"><g transform="" style="fill: rgb(0, 0, 0);">
<rect width="100" height="100"/>
</g></g><g transform="translate(400,240) scale(0.405,0.405)"><g transform="" style="fill: rgb(0, 0, 0);">
<rect width="100" height="100"/>
</g></g><g transform="translate(480,240) scale(0.405,0.405)"><g transform="" style="fill: rgb(0, 0, 0);">
<rect width="100" height="100"/>
</g></g><g transform="translate(560,240) scale(0.405,0.405)"><g transform="" style="fill: rgb(0, 0, 0);">
<rect width="100" height="100"/>
</g></g><g transform="translate(640,240) scale(0.405,0.405)"><g transform="" style="fill: rgb(0, 0, 0);">
<rect width="100" height="100"/>
</g></g><g transform="translate(360,280) scale(0.405,0.405)"><g transform="" style="fill: rgb(0, 0, 0);">
<rect width="100" height="100"/>
</g></g><g transform="translate(440,280) scale(0.405,0.405)"><g transform="" style="fill: rgb(0, 0, 0);">
<rect width="100" height="100"/>
</g></g><g transform="translate(520,280) scale(0.405,0.405)"><g transform="" style="fill: rgb(0, 0, 0);">
<rect width="100" height="100"/>
</g></g><g transform="translate(560,280) scale(0.405,0.405)"><g transform="" style="fill: rgb(0, 0, 0);">
<rect width="100" height="100"/>
</g></g><g transform="translate(0,320) scale(0.405,0.405)"><g transform="" style="fill: rgb(0, 0, 0);">
<rect width="100" height="100"/>
</g></g><g transform="translate(120,320) scale(0.405,0.405)"><g transform="" style="fill: rgb(0, 0, 0);">
<rect width="100" height="100"/>
</g></g><g transform="translate(160,320) scale(0.405,0.405)"><g transform="" style="fill: rgb(0, 0, 0);">
<rect width="100" height="100"/>
</g></g><g transform="translate(200,320) scale(0.405,0.405)"><g transform="" style="fill: rgb(0, 0, 0);">
<rect width="100" height="100"/>
</g></g><g transform="translate(240,320) scale(0.405,0.405)"><g transform="" style="fill: rgb(0, 0, 0);">
<rect width="100" height="100"/>
</g></g><g transform="translate(280,320) scale(0.405,0.405)"><g transform="" style="fill: rgb(0, 0, 0);">
<rect width="100" height="100"/>
</g></g><g transform="translate(320,320) scale(0.405,0.405)"><g transform="" style="fill: rgb(0, 0, 0);">
<rect width="100" height="100"/>
</g></g><g transform="translate(360,320) scale(0.405,0.405)"><g transform="" style="fill: rgb(0, 0, 0);">
<rect width="100" height="100"/>
</g></g><g transform="translate(400,320) scale(0.405,0.405)"><g transform="" style="fill: rgb(0, 0, 0);">
<rect width="100" height="100"/>
</g></g><g transform="translate(480,320) scale(0.405,0.405)"><g transform="" style="fill: rgb(0, 0, 0);">
<rect width="100" height="100"/>
</g></g><g transform="translate(600,320) scale(0.405,0.405)"><g transform="" style="fill: rgb(0, 0, 0);">
<rect width="100" height="100"/>
</g></g><g transform="translate(680,320) scale(0.405,0.405)"><g transform="" style="fill: rgb(0, 0, 0);">
<rect width="100" height="100"/>
</g></g><g transform="translate(800,320) scale(0.405,0.405)"><g transform="" style="fill: rgb(0, 0, 0);">
<rect width="100" height="100"/>
</g></g><g transform="translate(880,320) scale(0.405,0.405)"><g transform="" style="fill: rgb(0, 0, 0);">
<rect width="100" height="100"/>
</g></g><g transform="translate(920,320) scale(0.405,0.405)"><g transform="" style="fill: rgb(0, 0, 0);">
<rect width="100" height="100"/>
</g></g><g transform="translate(960,320) scale(0.405,0.405)"><g transform="" style="fill: rgb(0, 0, 0);">
<rect width="100" height="100"/>
</g></g><g transform="translate(40,360) scale(0.405,0.405)"><g transform="" style="fill: rgb(0, 0, 0);">
<rect width="100" height="100"/>
</g></g><g transform="translate(120,360) scale(0.405,0.405)"><g transform="" style="fill: rgb(0, 0, 0);">
<rect width="100" height="100"/>
</g></g><g transform="translate(280,360) scale(0.405,0.405)"><g transform="" style="fill: rgb(0, 0, 0);">
<rect width="100" height="100"/>
</g></g><g transform="translate(760,360) scale(0.405,0.405)"><g transform="" style="fill: rgb(0, 0, 0);">
<rect width="100" height="100"/>
</g></g><g transform="translate(800,360) scale(0.405,0.405)"><g transform="" style="fill: rgb(0, 0, 0);">
<rect width="100" height="100"/>
</g></g><g transform="translate(840,360) scale(0.405,0.405)"><g transform="" style="fill: rgb(0, 0, 0);">
<rect width="100" height="100"/>
</g></g><g transform="translate(880,360) scale(0.405,0.405)"><g transform="" style="fill: rgb(0, 0, 0);">
<rect width="100" height="100"/>
</g></g><g transform="translate(920,360) scale(0.405,0.405)"><g transform="" style="fill: rgb(0, 0, 0);">
<rect width="100" height="100"/>
</g></g><g transform="translate(80,400) scale(0.405,0.405)"><g transform="" style="fill: rgb(0, 0, 0);">
<rect width="100" height="100"/>
</g></g><g transform="translate(160,400) scale(0.405,0.405)"><g transform="" style="fill: rgb(0, 0, 0);">
<rect width="100" height="100"/>
</g></g><g transform="translate(240,400) scale(0.405,0.405)"><g transform="" style="fill: rgb(0, 0, 0);">
<rect width="100" height="100"/>
</g></g><g transform="translate(280,400) scale(0.405,0.405)"><g transform="" style="fill: rgb(0, 0, 0);">
<rect width="100" height="100"/>
</g></g><g transform="translate(440,400) scale(0.405,0.405)"><g transform="" style="fill: rgb(0, 0, 0);">
<rect width="100" height="100"/>
</g></g><g transform="translate(480,400) scale(0.405,0.405)"><g transform="" style="fill: rgb(0, 0, 0);">
<rect width="100" height="100"/>
</g></g><g transform="translate(520,400) scale(0.405,0.405)"><g transform="" style="fill: rgb(0, 0, 0);">
<rect width="100" height="100"/>
</g></g><g transform="translate(600,400) scale(0.405,0.405)"><g transform="" style="fill: rgb(0, 0, 0);">
<rect width="100" height="100"/>
</g></g><g transform="translate(640,400) scale(0.405,0.405)"><g transform="" style="fill: rgb(0, 0, 0);">
<rect width="100" height="100"/>
</g></g><g transform="translate(760,400) scale(0.405,0.405)"><g transform="" style="fill: rgb(0, 0, 0);">
<rect width="100" height="100"/>
</g></g><g transform="translate(840,400) scale(0.405,0.405)"><g transform="" style="fill: rgb(0, 0, 0);">
<rect width="100" height="100"/>
</g></g><g transform="translate(960,400) scale(0.405,0.405)"><g transform="" style="fill: rgb(0, 0, 0);">
<rect width="100" height="100"/>
</g></g><g transform="translate(0,440) scale(0.405,0.405)"><g transform="" style="fill: rgb(0, 0, 0);">
<rect width="100" height="100"/>
</g></g><g transform="translate(160,440) scale(0.405,0.405)"><g transform="" style="fill: rgb(0, 0, 0);">
<rect width="100" height="100"/>
</g></g><g transform="translate(200,440) scale(0.405,0.405)"><g transform="" style="fill: rgb(0, 0, 0);">
<rect width="100" height="100"/>
</g></g><g transform="translate(320,440) scale(0.405,0.405)"><g transform="" style="fill: rgb(0, 0, 0);">
<rect width="100" height="100"/>
</g></g><g transform="translate(480,440) scale(0.405,0.405)"><g transform="" style="fill: rgb(0, 0, 0);">
<rect width="100" height="100"/>
</g></g><g transform="translate(560,440) scale(0.405,0.405)"><g transform="" style="fill: rgb(0, 0, 0);">
<rect width="100" height="100"/>
</g></g><g transform="translate(600,440) scale(0.405,0.405)"><g transform="" style="fill: rgb(0, 0, 0);">
<rect width="100" height="100"/>
</g></g><g transform="translate(760,440) scale(0.405,0.405)"><g transform="" style="fill: rgb(0, 0, 0);">
<rect width="100" height="100"/>
</g></g><g transform="translate(840,440) scale(0.405,0.405)"><g transform="" style="fill: rgb(0, 0, 0);">
<rect width="100" height="100"/>
</g></g><g transform="translate(880,440) scale(0.405,0.405)"><g transform="" style="fill: rgb(0, 0, 0);">
<rect width="100" height="100"/>
</g></g><g transform="translate(920,440) scale(0.405,0.405)"><g transform="" style="fill: rgb(0, 0, 0);">
<rect width="100" height="100"/>
</g></g><g transform="translate(960,440) scale(0.405,0.405)"><g transform="" style="fill: rgb(0, 0, 0);">
<rect width="100" height="100"/>
</g></g><g transform="translate(40,480) scale(0.405,0.405)"><g transform="" style="fill: rgb(0, 0, 0);">
<rect width="100" height="100"/>
</g></g><g transform="translate(80,480) scale(0.405,0.405)"><g transform="" style="fill: rgb(0, 0, 0);">
<rect width="100" height="100"/>
</g></g><g transform="translate(160,480) scale(0.405,0.405)"><g transform="" style="fill: rgb(0, 0, 0);">
<rect width="100" height="100"/>
</g></g><g transform="translate(200,480) scale(0.405,0.405)"><g transform="" style="fill: rgb(0, 0, 0);">
<rect width="100" height="100"/>
</g></g><g transform="translate(240,480) scale(0.405,0.405)"><g transform="" style="fill: rgb(0, 0, 0);">
<rect width="100" height="100"/>
</g></g><g transform="translate(320,480) scale(0.405,0.405)"><g transform="" style="fill: rgb(0, 0, 0);">
<rect width="100" height="100"/>
</g></g><g transform="translate(360,480) scale(0.405,0.405)"><g transform="" style="fill: rgb(0, 0, 0);">
<rect width="100" height="100"/>
</g></g><g transform="translate(400,480) scale(0.405,0.405)"><g transform="" style="fill: rgb(0, 0, 0);">
<rect width="100" height="100"/>
</g></g><g transform="translate(440,480) scale(0.405,0.405)"><g transform="" style="fill: rgb(0, 0, 0);">
<rect width="100" height="100"/>
</g></g><g transform="translate(480,480) scale(0.405,0.405)"><g transform="" style="fill: rgb(0, 0, 0);">
<rect width="100" height="100"/>
</g></g><g transform="translate(640,480) scale(0.405,0.405)"><g transform="" style="fill: rgb(0, 0, 0);">
<rect width="100" height="100"/>
</g></g><g transform="translate(720,480) scale(0.405,0.405)"><g transform="" style="fill: rgb(0, 0, 0);">
<rect width="100" height="100"/>
</g></g><g transform="translate(760,480) scale(0.405,0.405)"><g transform="" style="fill: rgb(0, 0, 0);">
<rect width="100" height="100"/>
</g></g><g transform="translate(960,480) scale(0.405,0.405)"><g transform="" style="fill: rgb(0, 0, 0);">
<rect width="100" height="100"/>
</g></g><g transform="translate(0,520) scale(0.405,0.405)"><g transform="" style="fill: rgb(0, 0, 0);">
<rect width="100" height="100"/>
</g></g><g transform="translate(160,520) scale(0.405,0.405)"><g transform="" style="fill: rgb(0, 0, 0);">
<rect width="100" height="100"/>
</g></g><g transform="translate(360,520) scale(0.405,0.405)"><g transform="" style="fill: rgb(0, 0, 0);">
<rect width="100" height="100"/>
</g></g><g transform="translate(520,520) scale(0.405,0.405)"><g transform="" style="fill: rgb(0, 0, 0);">
<rect width="100" height="100"/>
</g></g><g transform="translate(560,520) scale(0.405,0.405)"><g transform="" style="fill: rgb(0, 0, 0);">
<rect width="100" height="100"/>
</g></g><g transform="translate(600,520) scale(0.405,0.405)"><g transform="" style="fill: rgb(0, 0, 0);">
<rect width="100" height="100"/>
</g></g><g transform="translate(800,520) scale(0.405,0.405)"><g transform="" style="fill: rgb(0, 0, 0);">
<rect width="100" height="100"/>
</g></g><g transform="translate(920,520) scale(0.405,0.405)"><g transform="" style="fill: rgb(0, 0, 0);">
<rect width="100" height="100"/>
</g></g><g transform="translate(0,560) scale(0.405,0.405)"><g transform="" style="fill: rgb(0, 0, 0);">
<rect width="100" height="100"/>
</g></g><g transform="translate(40,560) scale(0.405,0.405)"><g transform="" style="fill: rgb(0, 0, 0);">
<rect width="100" height="100"/>
</g></g><g transform="translate(160,560) scale(0.405,0.405)"><g transform="" style="fill: rgb(0, 0, 0);">
<rect width="100" height="100"/>
</g></g><g transform="translate(200,560) scale(0.405,0.405)"><g transform="" style="fill: rgb(0, 0, 0);">
<rect width="100" height="100"/>
</g></g><g transform="translate(240,560) scale(0.405,0.405)"><g transform="" style="fill: rgb(0, 0, 0);">
<rect width="100" height="100"/>
</g></g><g transform="translate(320,560) scale(0.405,0.405)"><g transform="" style="fill: rgb(0, 0, 0);">
<rect width="100" height="100"/>
</g></g><g transform="translate(360,560) scale(0.405,0.405)"><g transform="" style="fill: rgb(0, 0, 0);">
<rect width="100" height="100"/>
</g></g><g transform="translate(400,560) scale(0.405,0.405)"><g transform="" style="fill: rgb(0, 0, 0);">
<rect width="100" height="100"/>
</g></g><g transform="translate(440,560) scale(0.405,0.405)"><g transform="" style="fill: rgb(0, 0, 0);">
<rect width="100" height="100"/>
</g></g><g transform="translate(480,560) scale(0.405,0.405)"><g transform="" style="fill: rgb(0, 0, 0);">
<rect width="100" height="100"/>
</g></g><g transform="translate(520,560) scale(0.405,0.405)"><g transform="" style="fill: rgb(0, 0, 0);">
<rect width="100" height="100"/>
</g></g><g transform="translate(600,560) scale(0.405,0.405)"><g transform="" style="fill: rgb(0, 0, 0);">
<rect width="100" height="100"/>
</g></g><g transform="translate(640,560) scale(0.405,0.405)"><g transform="" style="fill: rgb(0, 0, 0);">
<rect width="100" height="100"/>
</g></g><g transform="translate(680,560) scale(0.405,0.405)"><g transform="" style="fill: rgb(0, 0, 0);">
<rect width="100" height="100"/>
</g></g><g transform="translate(800,560) scale(0.405,0.405)"><g transform="" style="fill: rgb(0, 0, 0);">
<rect width="100" height="100"/>
</g></g><g transform="translate(840,560) scale(0.405,0.405)"><g transform="" style="fill: rgb(0, 0, 0);">
<rect width="100" height="100"/>
</g></g><g transform="translate(880,560) scale(0.405,0.405)"><g transform="" style="fill: rgb(0, 0, 0);">
<rect width="100" height="100"/>
</g></g><g transform="translate(920,560) scale(0.405,0.405)"><g transform="" style="fill: rgb(0, 0, 0);">
<rect width="100" height="100"/>
</g></g><g transform="translate(960,560) scale(0.405,0.405)"><g transform="" style="fill: rgb(0, 0, 0);">
<rect width="100" height="100"/>
</g></g><g transform="translate(0,600) scale(0.405,0.405)"><g transform="" style="fill: rgb(0, 0, 0);">
<rect width="100" height="100"/>
</g></g><g transform="translate(120,600) scale(0.405,0.405)"><g transform="" style="fill: rgb(0, 0, 0);">
<rect width="100" height="100"/>
</g></g><g transform="translate(200,600) scale(0.405,0.405)"><g transform="" style="fill: rgb(0, 0, 0);">
<rect width="100" height="100"/>
</g></g><g transform="translate(280,600) scale(0.405,0.405)"><g transform="" style="fill: rgb(0, 0, 0);">
<rect width="100" height="100"/>
</g></g><g transform="translate(360,600) scale(0.405,0.405)"><g transform="" style="fill: rgb(0, 0, 0);">
<rect width="100" height="100"/>
</g></g><g transform="translate(440,600) scale(0.405,0.405)"><g transform="" style="fill: rgb(0, 0, 0);">
<rect width="100" height="100"/>
</g></g><g transform="translate(680,600) scale(0.405,0.405)"><g transform="" style="fill: rgb(0, 0, 0);">
<rect width="100" height="100"/>
</g></g><g transform="translate(760,600) scale(0.405,0.405)"><g transform="" style="fill: rgb(0, 0, 0);">
<rect width="100" height="100"/>
</g></g><g transform="translate(840,600) scale(0.405,0.405)"><g transform="" style="fill: rgb(0, 0, 0);">
<rect width="100" height="100"/>
</g></g><g transform="translate(880,600) scale(0.405,0.405)"><g transform="" style="fill: rgb(0, 0, 0);">
<rect width="100" height="100"/>
</g></g><g transform="translate(960,600) scale(0.405,0.405)"><g transform="" style="fill: rgb(0, 0, 0);">
<rect width="100" height="100"/>
</g></g><g transform="translate(0,640) scale(0.405,0.405)"><g transform="" style="fill: rgb(0, 0, 0);">
<rect width="100" height="100"/>
</g></g><g transform="translate(80,640) scale(0.405,0.405)"><g transform="" style="fill: rgb(0, 0, 0);">
<rect width="100" height="100"/>
</g></g><g transform="translate(160,640) scale(0.405,0.405)"><g transform="" style="fill: rgb(0, 0, 0);">
<rect width="100" height="100"/>
</g></g><g transform="translate(200,640) scale(0.405,0.405)"><g transform="" style="fill: rgb(0, 0, 0);">
<rect width="100" height="100"/>
</g></g><g transform="translate(240,640) scale(0.405,0.405)"><g transform="" style="fill: rgb(0, 0, 0);">
<rect width="100" height="100"/>
</g></g><g transform="translate(280,640) scale(0.405,0.405)"><g transform="" style="fill: rgb(0, 0, 0);">
<rect width="100" height="100"/>
</g></g><g transform="translate(560,640) scale(0.405,0.405)"><g transform="" style="fill: rgb(0, 0, 0);">
<rect width="100" height="100"/>
</g></g><g transform="translate(640,640) scale(0.405,0.405)"><g transform="" style="fill: rgb(0, 0, 0);">
<rect width="100" height="100"/>
</g></g><g transform="translate(680,640) scale(0.405,0.405)"><g transform="" style="fill: rgb(0, 0, 0);">
<rect width="100" height="100"/>
</g></g><g transform="translate(720,640) scale(0.405,0.405)"><g transform="" style="fill: rgb(0, 0, 0);">
<rect width="100" height="100"/>
</g></g><g transform="translate(760,640) scale(0.405,0.405)"><g transform="" style="fill: rgb(0, 0, 0);">
<rect width="100" height="100"/>
</g></g><g transform="translate(800,640) scale(0.405,0.405)"><g transform="" style="fill: rgb(0, 0, 0);">
<rect width="100" height="100"/>
</g></g><g transform="translate(880,640) scale(0.405,0.405)"><g transform="" style="fill: rgb(0, 0, 0);">
<rect width="100" height="100"/>
</g></g><g transform="translate(920,640) scale(0.405,0.405)"><g transform="" style="fill: rgb(0, 0, 0);">
<rect width="100" height="100"/>
</g></g><g transform="translate(320,680) scale(0.405,0.405)"><g transform="" style="fill: rgb(0, 0, 0);">
<rect width="100" height="100"/>
</g></g><g transform="translate(400,680) scale(0.405,0.405)"><g transform="" style="fill: rgb(0, 0, 0);">
<rect width="100" height="100"/>
</g></g><g transform="translate(440,680) scale(0.405,0.405)"><g transform="" style="fill: rgb(0, 0, 0);">
<rect width="100" height="100"/>
</g></g><g transform="translate(480,680) scale(0.405,0.405)"><g transform="" style="fill: rgb(0, 0, 0);">
<rect width="100" height="100"/>
</g></g><g transform="translate(520,680) scale(0.405,0.405)"><g transform="" style="fill: rgb(0, 0, 0);">
<rect width="100" height="100"/>
</g></g><g transform="translate(640,680) scale(0.405,0.405)"><g transform="" style="fill: rgb(0, 0, 0);">
<rect width="100" height="100"/>
</g></g><g transform="translate(800,680) scale(0.405,0.405)"><g transform="" style="fill: rgb(0, 0, 0);">
<rect width="100" height="100"/>
</g></g><g transform="translate(880,680) scale(0.405,0.405)"><g transform="" style="fill: rgb(0, 0, 0);">
<rect width="100" height="100"/>
</g></g><g transform="translate(920,680) scale(0.405,0.405)"><g transform="" style="fill: rgb(0, 0, 0);">
<rect width="100" height="100"/>
</g></g><g transform="translate(320,720) scale(0.405,0.405)"><g transform="" style="fill: rgb(0, 0, 0);">
<rect width="100" height="100"/>
</g></g><g transform="translate(440,720) scale(0.405,0.405)"><g transform="" style="fill: rgb(0, 0, 0);">
<rect width="100" height="100"/>
</g></g><g transform="translate(640,720) scale(0.405,0.405)"><g transform="" style="fill: rgb(0, 0, 0);">
<rect width="100" height="100"/>
</g></g><g transform="translate(720,720) scale(0.405,0.405)"><g transform="" style="fill: rgb(0, 0, 0);">
<rect width="100" height="100"/>
</g></g><g transform="translate(800,720) scale(0.405,0.405)"><g transform="" style="fill: rgb(0, 0, 0);">
<rect width="100" height="100"/>
</g></g><g transform="translate(960,720) scale(0.405,0.405)"><g transform="" style="fill: rgb(0, 0, 0);">
<rect width="100" height="100"/>
</g></g><g transform="translate(320,760) scale(0.405,0.405)"><g transform="" style="fill: rgb(0, 0, 0);">
<rect width="100" height="100"/>
</g></g><g transform="translate(360,760) scale(0.405,0.405)"><g transform="" style="fill: rgb(0, 0, 0);">
<rect width="100" height="100"/>
</g></g><g transform="translate(400,760) scale(0.405,0.405)"><g transform="" style="fill: rgb(0, 0, 0);">
<rect width="100" height="100"/>
</g></g><g transform="translate(480,760) scale(0.405,0.405)"><g transform="" style="fill: rgb(0, 0, 0);">
<rect width="100" height="100"/>
</g></g><g transform="translate(560,760) scale(0.405,0.405)"><g transform="" style="fill: rgb(0, 0, 0);">
<rect width="100" height="100"/>
</g></g><g transform="translate(600,760) scale(0.405,0.405)"><g transform="" style="fill: rgb(0, 0, 0);">
<rect width="100" height="100"/>
</g></g><g transform="translate(640,760) scale(0.405,0.405)"><g transform="" style="fill: rgb(0, 0, 0);">
<rect width="100" height="100"/>
</g></g><g transform="translate(800,760) scale(0.405,0.405)"><g transform="" style="fill: rgb(0, 0, 0);">
<rect width="100" height="100"/>
</g></g><g transform="translate(920,760) scale(0.405,0.405)"><g transform="" style="fill: rgb(0, 0, 0);">
<rect width="100" height="100"/>
</g></g><g transform="translate(960,760) scale(0.405,0.405)"><g transform="" style="fill: rgb(0, 0, 0);">
<rect width="100" height="100"/>
</g></g><g transform="translate(320,800) scale(0.405,0.405)"><g transform="" style="fill: rgb(0, 0, 0);">
<rect width="100" height="100"/>
</g></g><g transform="translate(480,800) scale(0.405,0.405)"><g transform="" style="fill: rgb(0, 0, 0);">
<rect width="100" height="100"/>
</g></g><g transform="translate(520,800) scale(0.405,0.405)"><g transform="" style="fill: rgb(0, 0, 0);">
<rect width="100" height="100"/>
</g></g><g transform="translate(560,800) scale(0.405,0.405)"><g transform="" style="fill: rgb(0, 0, 0);">
<rect width="100" height="100"/>
</g></g><g transform="translate(600,800) scale(0.405,0.405)"><g transform="" style="fill: rgb(0, 0, 0);">
<rect width="100" height="100"/>
</g></g><g transform="translate(640,800) scale(0.405,0.405)"><g transform="" style="fill: rgb(0, 0, 0);">
<rect width="100" height="100"/>
</g></g><g transform="translate(680,800) scale(0.405,0.405)"><g transform="" style="fill: rgb(0, 0, 0);">
<rect width="100" height="100"/>
</g></g><g transform="translate(720,800) scale(0.405,0.405)"><g transform="" style="fill: rgb(0, 0, 0);">
<rect width="100" height="100"/>
</g></g><g transform="translate(760,800) scale(0.405,0.405)"><g transform="" style="fill: rgb(0, 0, 0);">
<rect width="100" height="100"/>
</g></g><g transform="translate(800,800) scale(0.405,0.405)"><g transform="" style="fill: rgb(0, 0, 0);">
<rect width="100" height="100"/>
</g></g><g transform="translate(920,800) scale(0.405,0.405)"><g transform="" style="fill: rgb(0, 0, 0);">
<rect width="100" height="100"/>
</g></g><g transform="translate(960,800) scale(0.405,0.405)"><g transform="" style="fill: rgb(0, 0, 0);">
<rect width="100" height="100"/>
</g></g><g transform="translate(320,840) scale(0.405,0.405)"><g transform="" style="fill: rgb(0, 0, 0);">
<rect width="100" height="100"/>
</g></g><g transform="translate(400,840) scale(0.405,0.405)"><g transform="" style="fill: rgb(0, 0, 0);">
<rect width="100" height="100"/>
</g></g><g transform="translate(560,840) scale(0.405,0.405)"><g transform="" style="fill: rgb(0, 0, 0);">
<rect width="100" height="100"/>
</g></g><g transform="translate(600,840) scale(0.405,0.405)"><g transform="" style="fill: rgb(0, 0, 0);">
<rect width="100" height="100"/>
</g></g><g transform="translate(720,840) scale(0.405,0.405)"><g transform="" style="fill: rgb(0, 0, 0);">
<rect width="100" height="100"/>
</g></g><g transform="translate(920,840) scale(0.405,0.405)"><g transform="" style="fill: rgb(0, 0, 0);">
<rect width="100" height="100"/>
</g></g><g transform="translate(960,840) scale(0.405,0.405)"><g transform="" style="fill: rgb(0, 0, 0);">
<rect width="100" height="100"/>
</g></g><g transform="translate(400,880) scale(0.405,0.405)"><g transform="" style="fill: rgb(0, 0, 0);">
<rect width="100" height="100"/>
</g></g><g transform="translate(480,880) scale(0.405,0.405)"><g transform="" style="fill: rgb(0, 0, 0);">
<rect width="100" height="100"/>
</g></g><g transform="translate(560,880) scale(0.405,0.405)"><g transform="" style="fill: rgb(0, 0, 0);">
<rect width="100" height="100"/>
</g></g><g transform="translate(680,880) scale(0.405,0.405)"><g transform="" style="fill: rgb(0, 0, 0);">
<rect width="100" height="100"/>
</g></g><g transform="translate(800,880) scale(0.405,0.405)"><g transform="" style="fill: rgb(0, 0, 0);">
<rect width="100" height="100"/>
</g></g><g transform="translate(840,880) scale(0.405,0.405)"><g transform="" style="fill: rgb(0, 0, 0);">
<rect width="100" height="100"/>
</g></g><g transform="translate(880,880) scale(0.405,0.405)"><g transform="" style="fill: rgb(0, 0, 0);">
<rect width="100" height="100"/>
</g></g><g transform="translate(920,880) scale(0.405,0.405)"><g transform="" style="fill: rgb(0, 0, 0);">
<rect width="100" height="100"/>
</g></g><g transform="translate(960,880) scale(0.405,0.405)"><g transform="" style="fill: rgb(0, 0, 0);">
<rect width="100" height="100"/>
</g></g><g transform="translate(360,920) scale(0.405,0.405)"><g transform="" style="fill: rgb(0, 0, 0);">
<rect width="100" height="100"/>
</g></g><g transform="translate(400,920) scale(0.405,0.405)"><g transform="" style="fill: rgb(0, 0, 0);">
<rect width="100" height="100"/>
</g></g><g transform="translate(560,920) scale(0.405,0.405)"><g transform="" style="fill: rgb(0, 0, 0);">
<rect width="100" height="100"/>
</g></g><g transform="translate(760,920) scale(0.405,0.405)"><g transform="" style="fill: rgb(0, 0, 0);">
<rect width="100" height="100"/>
</g></g><g transform="translate(800,920) scale(0.405,0.405)"><g transform="" style="fill: rgb(0, 0, 0);">
<rect width="100" height="100"/>
</g></g><g transform="translate(880,920) scale(0.405,0.405)"><g transform="" style="fill: rgb(0, 0, 0);">
<rect width="100" height="100"/>
</g></g><g transform="translate(920,920) scale(0.405,0.405)"><g transform="" style="fill: rgb(0, 0, 0);">
<rect width="100" height="100"/>
</g></g><g transform="translate(960,920) scale(0.405,0.405)"><g transform="" style="fill: rgb(0, 0, 0);">
<rect width="100" height="100"/>
</g></g><g transform="translate(320,960) scale(0.405,0.405)"><g transform="" style="fill: rgb(0, 0, 0);">
<rect width="100" height="100"/>
</g></g><g transform="translate(360,960) scale(0.405,0.405)"><g transform="" style="fill: rgb(0, 0, 0);">
<rect width="100" height="100"/>
</g></g><g transform="translate(400,960) scale(0.405,0.405)"><g transform="" style="fill: rgb(0, 0, 0);">
<rect width="100" height="100"/>
</g></g><g transform="translate(520,960) scale(0.405,0.405)"><g transform="" style="fill: rgb(0, 0, 0);">
<rect width="100" height="100"/>
</g></g><g transform="translate(560,960) scale(0.405,0.405)"><g transform="" style="fill: rgb(0, 0, 0);">
<rect width="100" height="100"/>
</g></g><g transform="translate(640,960) scale(0.405,0.405)"><g transform="" style="fill: rgb(0, 0, 0);">
<rect width="100" height="100"/>
</g></g><g transform="translate(680,960) scale(0.405,0.405)"><g transform="" style="fill: rgb(0, 0, 0);">
<rect width="100" height="100"/>
</g></g><g transform="translate(840,960) scale(0.405,0.405)"><g transform="" style="fill: rgb(0, 0, 0);">
<rect width="100" height="100"/>
</g></g><g transform="translate(960,960) scale(0.405,0.405)"><g transform="" style="fill: rgb(0, 0, 0);">
<rect width="100" height="100"/>
</g></g><g transform="translate(0,0) scale(2.8, 2.8)"><g transform="" style="fill: rgb(0, 0, 0);">
<g>
	<rect x="15" y="15" style="fill:none;" width="70" height="70"/>
	<path d="M85,0H15H0v15v70v15h15h70h15V85V15V0H85z M85,85H15V15h70V85z"/>
</g>
</g></g><g transform="translate(720,0) scale(2.8, 2.8)"><g transform="" style="fill: rgb(0, 0, 0);">
<g>
	<rect x="15" y="15" style="fill:none;" width="70" height="70"/>
	<path d="M85,0H15H0v15v70v15h15h70h15V85V15V0H85z M85,85H15V15h70V85z"/>
</g>
</g></g><g transform="translate(0,720) scale(2.8, 2.8)"><g transform="" style="fill: rgb(0, 0, 0);">
<g>
	<rect x="15" y="15" style="fill:none;" width="70" height="70"/>
	<path d="M85,0H15H0v15v70v15h15h70h15V85V15V0H85z M85,85H15V15h70V85z"/>
</g>
</g></g><g transform="translate(80,80) scale(1.2, 1.2)"><g transform="" style="fill: rgb(0, 0, 0);">
<rect width="100" height="100"/>
</g></g><g transform="translate(800,80) scale(1.2, 1.2)"><g transform="" style="fill: rgb(0, 0, 0);">
<rect width="100" height="100"/>
</g></g><g transform="translate(80,800) scale(1.2, 1.2)"><g transform="" style="fill: rgb(0, 0, 0);">
<rect width="100" height="100"/>
</g></g></g></svg>